<svg xmlns="http://www.w3.org/2000/svg" width="36.562" height="46.72" viewBox="0 0 36.562 46.72">
  <defs>
    <style>
      .cls-1 {
        fill: #fff;
        fill-rule: evenodd;
      }
    </style>
  </defs>
  <path id="_1" data-name="1" class="cls-1" d="M547.633,3864.01a5.807,5.807,0,0,1-6.577.99,6.047,6.047,0,0,1-2.023-1.57l-3.043,6.73a0.572,0.572,0,0,0,.089.62,0.578,0.578,0,0,0,.6.18l2.215-.62a2.839,2.839,0,0,1,3.3,1.5l1,2.06a0.569,0.569,0,0,0,.534.34,0.587,0.587,0,0,0,.526-0.35l4.84-10.7A3.655,3.655,0,0,0,547.633,3864.01Zm16.948,6.15-3.043-6.73a6.047,6.047,0,0,1-2.023,1.57,5.805,5.805,0,0,1-6.576-.99,3.666,3.666,0,0,0-1.465-.82l4.84,10.7a0.587,0.587,0,0,0,.526.35,0.569,0.569,0,0,0,.534-0.34l1-2.06a2.839,2.839,0,0,1,3.3-1.5l2.215,0.62a0.578,0.578,0,0,0,.6-0.18A0.57,0.57,0,0,0,564.581,3870.16Zm2.391-23.67a5.939,5.939,0,0,1-1.786-7.82,3.67,3.67,0,0,0-4.257-5.34,5.936,5.936,0,0,1-7.229-3.48,3.673,3.673,0,0,0-6.829,0,5.936,5.936,0,0,1-7.228,3.48,3.671,3.671,0,0,0-4.258,5.34,5.939,5.939,0,0,1-1.785,7.82,3.666,3.666,0,0,0,1.519,6.65,5.94,5.94,0,0,1,5,6.27,3.671,3.671,0,0,0,6.152,2.96,5.938,5.938,0,0,1,8.023,0,3.672,3.672,0,0,0,6.153-2.96,5.938,5.938,0,0,1,5-6.27A3.666,3.666,0,0,0,566.972,3846.49Zm-16.686,11.68a12.005,12.005,0,1,1,12.012-12A12.018,12.018,0,0,1,550.286,3858.17Zm0-21.77a9.765,9.765,0,1,0,9.774,9.77A9.78,9.78,0,0,0,550.285,3836.4Zm5.009,8.82-6.082,4.44a1.04,1.04,0,0,1-.844.2,1.1,1.1,0,0,1-.733-0.46l-1.82-2.59a1.121,1.121,0,0,1,1.833-1.29l1.164,1.66,5.161-3.77a1.125,1.125,0,0,1,1.565.25A1.114,1.114,0,0,1,555.294,3845.22Z" transform="translate(-532 -3827.53)"/>
</svg>
