<svg xmlns="http://www.w3.org/2000/svg" width="51.25" height="41.56" viewBox="0 0 51.25 41.56">
  <defs>
    <style>
      .cls-1 {
        fill: #fff;
        fill-rule: evenodd;
      }
    </style>
  </defs>
  <path id="_2" data-name="2" class="cls-1" d="M796.82,3844.5l-9.059,6.09-6.145-3.69-1.051-7.12,9.059-6.08a14.453,14.453,0,0,0-15.282.53,14.625,14.625,0,0,0-6.362,13.7,5.47,5.47,0,0,0-.7.41l-18.6,12.5a6.843,6.843,0,0,0-1.866,9.46,6.754,6.754,0,0,0,9.409,1.87l18.606-12.5a7.108,7.108,0,0,0,.643-0.5,14.462,14.462,0,0,0,15.024-.68A14.613,14.613,0,0,0,796.82,3844.5Z" transform="translate(-745.656 -3831.75)"/>
</svg>
