<svg xmlns="http://www.w3.org/2000/svg" width="62.47" height="41.34" viewBox="0 0 62.47 41.34">
  <defs>
    <style>
      .cls-1 {
        fill: #fff;
        fill-rule: evenodd;
      }
    </style>
  </defs>
  <path id="_3" data-name="3" class="cls-1" d="M1066.9,3854.19v-0.04a1.43,1.43,0,0,0-1.44-1.42h-0.37l-5.84-11.42a1.414,1.414,0,0,0-1.27-.78h-9.96l0.38-3.05a4.229,4.229,0,0,0-1.05-3.24,4.085,4.085,0,0,0-3.08-1.35h-30.9a1.529,1.529,0,0,0-1.51,1.39l-0.31,2.52h17.6a2.012,2.012,0,0,1,2.02,2.09,2.15,2.15,0,0,1-2.12,2.1h-5.88a0.01,0.01,0,0,1,.01.01h-17.25a1.513,1.513,0,0,0-1.5,1.48,1.421,1.421,0,0,0,1.42,1.48h22.84a2.164,2.164,0,0,1,1.82,2.22,2.3,2.3,0,0,1-2.26,2.24h-15.74a1.535,1.535,0,0,0-1.52,1.5,1.442,1.442,0,0,0,1.44,1.5h15.56a2.159,2.159,0,0,1,1.85,2.22,2.3,2.3,0,0,1-2.27,2.24h-19.35a1.535,1.535,0,0,0-1.52,1.5,1.442,1.442,0,0,0,1.44,1.5h1.3l-0.51,5.36a4.191,4.191,0,0,0,1.05,3.24,4.064,4.064,0,0,0,3.07,1.35h1.12a6.47,6.47,0,0,0,6.38,5.4,6.907,6.907,0,0,0,6.67-5.4h13.93a4.71,4.71,0,0,0,3.03-1.15,4.1,4.1,0,0,0,2.89,1.15h0.22a6.48,6.48,0,0,0,6.39,5.4,6.9,6.9,0,0,0,6.66-5.4h0.92a4.883,4.883,0,0,0,4.74-4.4l0.9-10.1v-0.14Zm-46.27,17.05a3.611,3.611,0,0,1-3.6-3.74,3.845,3.845,0,0,1,3.8-3.74,3.611,3.611,0,0,1,3.6,3.74A3.852,3.852,0,0,1,1020.63,3871.24Zm33.13,0a3.605,3.605,0,0,1-3.6-3.74,3.83,3.83,0,0,1,3.79-3.74,3.605,3.605,0,0,1,3.6,3.74A3.843,3.843,0,0,1,1053.76,3871.24Zm9.29-7a1.791,1.791,0,0,1-1.71,1.59h-1a6.456,6.456,0,0,0-6.31-5.07,6.9,6.9,0,0,0-6.58,5.07h-0.31a1.238,1.238,0,0,1-.94-0.4,1.251,1.251,0,0,1-.31-1l1.86-20.91h4.28l-0.68,7.61a4.268,4.268,0,0,0,1.05,3.24,4.085,4.085,0,0,0,3.08,1.35h8.33Z" transform="translate(-1004.44 -3832.88)"/>
</svg>
