<svg xmlns="http://www.w3.org/2000/svg" width="47.25" height="49" viewBox="0 0 47.25 49">
  <defs>
    <style>
      .cls-1 {
        fill: #fff;
        fill-rule: evenodd;
      }
    </style>
  </defs>
  <path id="_4" data-name="4" class="cls-1" d="M1311.87,3859.58a6.806,6.806,0,0,0,6.71,6.85,4.544,4.544,0,0,0-2.49,4.06,4.45,4.45,0,1,0,8.9,0,4.544,4.544,0,0,0-2.49-4.06h17.17a4.544,4.544,0,0,0-2.49,4.06,4.445,4.445,0,1,0,8.89,0,4.535,4.535,0,0,0-2.48-4.06h3.66a1.655,1.655,0,0,0,0-3.31h-28.63a3.515,3.515,0,0,1-3.48-3.54v-2.69a6.679,6.679,0,0,0,3.48.98h23.01a8.807,8.807,0,0,0,8.09-6.2l4.22-14.99a1.666,1.666,0,0,0-.27-1.45,1.615,1.615,0,0,0-1.31-.66h-37.22v-1.72a6.8,6.8,0,0,0-6.74-6.85,1.66,1.66,0,0,0,0,3.32,3.5,3.5,0,0,1,3.47,3.53v26.73Z" transform="translate(-1306.75 -3826)"/>
</svg>
