<?xml version="1.0" encoding="UTF-8" standalone="no"?>
<svg
   xmlns:dc="http://purl.org/dc/elements/1.1/"
   xmlns:cc="http://creativecommons.org/ns#"
   xmlns:rdf="http://www.w3.org/1999/02/22-rdf-syntax-ns#"
   xmlns:svg="http://www.w3.org/2000/svg"
   xmlns="http://www.w3.org/2000/svg"
   id="svg8"
   version="1.1"
   viewBox="0 0 264.58333 264.58334"
   height="1000"
   width="1000">
  <defs
     id="defs2" />
  <metadata
     id="metadata5">
    <rdf:RDF>
      <cc:Work
         rdf:about="">
        <dc:format>image/svg+xml</dc:format>
        <dc:type
           rdf:resource="http://purl.org/dc/dcmitype/StillImage" />
        <dc:title></dc:title>
      </cc:Work>
    </rdf:RDF>
  </metadata>
  <g
     transform="translate(0,-32.41665)"
     id="layer1">
    <path
       id="path21"
       d="m 52.514174,230.3088 -29.72221,-26.7879 38.394043,15.56599 c 38.162252,15.47216 46.310523,24.63377 29.722211,33.41806 -4.769315,2.52647 -22.046808,-7.4627 -38.394044,-22.19615 z M 84.182808,216.27063 C 44.985817,199.02099 45.132476,199.1513 52.869407,188.42506 c 7.007892,-9.71531 77.425793,14.4231 77.425793,26.54056 0,13.86111 -16.51865,14.32828 -46.112392,1.30634 z M 104.69918,190.41839 C 65.267302,172.49038 65.622533,172.81564 73.515797,161.87257 c 4.417952,-6.12487 20.590279,-3.21943 47.459803,8.52501 22.41675,9.79888 38.01945,21.61229 34.67301,26.25211 -8.03372,11.1377 -14.48208,10.34926 -50.94943,-6.2313 z m 62.43874,-54.63911 C 108.79789,85.265423 107.90323,83.766779 130.01775,73.626078 c 12.46369,-5.715397 34.19937,-7.910311 48.30184,-4.87755 21.44624,4.611972 24.57445,9.153321 19.12291,27.763343 -5.63146,19.225719 -3.76515,21.500879 13.73602,16.741359 27.8257,-7.56682 45.57878,21.16667 31.99368,51.78207 -5.49255,12.37805 -11.39644,22.50583 -13.11997,22.50583 -1.72198,0 -30.03488,-23.29294 -62.91431,-51.76185 z m -31.72359,28.32169 C 94.329741,145.42166 94.791774,146.03338 109.94329,130.3908 c 11.82442,-12.2073 16.47687,-11.08829 42.41265,10.20171 45.96033,37.72866 38.1553,48.559 -16.94161,23.50846 z"
       style="fill:#4f4f4f;stroke-width:9.47712803" />
  </g>
</svg>
