<svg xmlns="http://www.w3.org/2000/svg" width="21.75" height="21.75" viewBox="0 0 21.75 21.75">
  <metadata><?xpacket begin="﻿" id="W5M0MpCehiHzreSzNTczkc9d"?>
<x:xmpmeta xmlns:x="adobe:ns:meta/" x:xmptk="Adobe XMP Core 5.6-c142 79.160924, 2017/07/13-01:06:39        ">
   <rdf:RDF xmlns:rdf="http://www.w3.org/1999/02/22-rdf-syntax-ns#">
      <rdf:Description rdf:about=""/>
   </rdf:RDF>
</x:xmpmeta>
                                                                                                    
                                                                                                    
                                                                                                    
                                                                                                    
                                                                                                    
                                                                                                    
                                                                                                    
                                                                                                    
                                                                                                    
                                                                                                    
                                                                                                    
                                                                                                    
                                                                                                    
                                                                                                    
                                                                                                    
                                                                                                    
                                                                                                    
                                                                                                    
                                                                                                    
                                                                                                    
                           
<?xpacket end="w"?></metadata>
<defs>
    <style>
      .cls-1 {
        fill: #004e90;
        fill-rule: evenodd;
      }
    </style>
  </defs>
  <path id="Фігура_1" data-name="Фігура 1" class="cls-1" d="M605.649,215.207a6.612,6.612,0,0,1-1.983,4.481,0.549,0.549,0,0,1-.775,0l-10.754-10.753a0.547,0.547,0,0,1,0-.775,6.575,6.575,0,0,1,4.658-1.985,6.1,6.1,0,0,1,4.335,1.815l0.035,0.036a0.547,0.547,0,0,1,.026.747l-1.959,2.249,1.572,1.572,2.249-1.959a0.55,0.55,0,0,1,.748.025l0.035,0.036A6.079,6.079,0,0,1,605.649,215.207Zm-18.827,3.938-1.916,2.059,7.886,3.693,2.115-1.967Zm2.7-2.9-1.916,2.06,8.165,3.823,2.114-1.966Zm9.928,1.686-5.554-5.553a0.537,0.537,0,0,0-.4-0.161,0.548,0.548,0,0,0-.391.175l-2.8,3.01,8.445,3.955,0.685-.637A0.55,0.55,0,0,0,599.451,217.928Zm-15.329,4.119-0.083.089a0.548,0.548,0,0,0,.014.761l4.874,4.873a0.55,0.55,0,0,0,.761.014l2.239-2.082Z" transform="translate(-583.906 -206.188)"/>
</svg>
