<svg xmlns="http://www.w3.org/2000/svg" width="32" height="29" viewBox="0 0 32 29">
  <metadata><?xpacket begin="﻿" id="W5M0MpCehiHzreSzNTczkc9d"?>
<x:xmpmeta xmlns:x="adobe:ns:meta/" x:xmptk="Adobe XMP Core 5.6-c142 79.160924, 2017/07/13-01:06:39        ">
   <rdf:RDF xmlns:rdf="http://www.w3.org/1999/02/22-rdf-syntax-ns#">
      <rdf:Description rdf:about=""/>
   </rdf:RDF>
</x:xmpmeta>
                                                                                                    
                                                                                                    
                                                                                                    
                                                                                                    
                                                                                                    
                                                                                                    
                                                                                                    
                                                                                                    
                                                                                                    
                                                                                                    
                                                                                                    
                                                                                                    
                                                                                                    
                                                                                                    
                                                                                                    
                                                                                                    
                                                                                                    
                                                                                                    
                                                                                                    
                                                                                                    
                           
<?xpacket end="w"?></metadata>
<defs>
    <style>
      .cls-1 {
        fill: #0e5796;
        fill-rule: evenodd;
      }
    </style>
  </defs>
  <path id="Фігура_13" data-name="Фігура 13" class="cls-1" d="M415.333,965.228h-0.369l-4.58-7.908a2.656,2.656,0,0,0-3.62-.965l-19.443,11.19a2.63,2.63,0,0,0-.969,3.594l0.33,0.57h0l0.552,0.951L390,977.436v4.928A2.654,2.654,0,0,0,392.667,985h22.666A2.654,2.654,0,0,0,418,982.364v-14.5A2.654,2.654,0,0,0,415.333,965.228ZM390,974.782l-0.509-.879L390,973.61v1.172Zm0-6.918v1.18l-2.491,1.434a1.316,1.316,0,0,1,.484-1.794l2.043-1.176A2.618,2.618,0,0,0,390,967.864Zm21.211-6.463,2.216,3.827h-8.864Zm-3.775-3.906a1.312,1.312,0,0,1,1.791.48v0l-12.6,7.251H394ZM402,976.432a0.662,0.662,0,0,1-.666.659h-6.667a0.659,0.659,0,1,1,0-1.318h6.667A0.662,0.662,0,0,1,402,976.432Zm2,4.614h-9.333a0.66,0.66,0,1,1,0-1.319H404A0.66,0.66,0,1,1,404,981.046Zm7.251,0a2.8,2.8,0,0,0-2.5,0,2.639,2.639,0,1,1,0-5.273,2.813,2.813,0,0,0,2.5,0A2.639,2.639,0,1,1,411.251,981.046Z" transform="translate(-386 -956)"/>
</svg>
