<?xml version="1.0" encoding="UTF-8" standalone="no"?>
<!-- Created with Inkscape (http://www.inkscape.org/) -->

<svg
   xmlns:dc="http://purl.org/dc/elements/1.1/"
   xmlns:cc="http://creativecommons.org/ns#"
   xmlns:rdf="http://www.w3.org/1999/02/22-rdf-syntax-ns#"
   xmlns:svg="http://www.w3.org/2000/svg"
   xmlns="http://www.w3.org/2000/svg"
   xmlns:sodipodi="http://sodipodi.sourceforge.net/DTD/sodipodi-0.dtd"
   xmlns:inkscape="http://www.inkscape.org/namespaces/inkscape"
   width="1000"
   height="1000"
   viewBox="0 0 264.58333 264.58334"
   version="1.1"
   id="svg8"
   inkscape:version="0.92.3 (2405546, 2018-03-11)">
  <defs
     id="defs2" />
  <sodipodi:namedview
     id="base"
     pagecolor="#ffffff"
     bordercolor="#666666"
     borderopacity="1.0"
     inkscape:pageopacity="0.0"
     inkscape:pageshadow="2"
     inkscape:zoom="0.35"
     inkscape:cx="350"
     inkscape:cy="560"
     inkscape:document-units="px"
     inkscape:current-layer="layer1"
     showgrid="false"
     units="px"
     inkscape:window-width="1366"
     inkscape:window-height="699"
     inkscape:window-x="-8"
     inkscape:window-y="-8"
     inkscape:window-maximized="1" />
  <metadata
     id="metadata5">
    <rdf:RDF>
      <cc:Work
         rdf:about="">
        <dc:format>image/svg+xml</dc:format>
        <dc:type
           rdf:resource="http://purl.org/dc/dcmitype/StillImage" />
        <dc:title></dc:title>
      </cc:Work>
    </rdf:RDF>
  </metadata>
  <g
     inkscape:label="Layer 1"
     inkscape:groupmode="layer"
     id="layer1"
     transform="translate(0,-32.41665)">
    <path
       style="fill:#4f4f4f;stroke-width:9.47712803"
       d="m -282.37273,225.01713 -29.72221,-26.7879 38.39404,15.56599 c 38.16225,15.47216 46.31052,24.63377 29.72221,33.41806 -4.76931,2.52647 -22.04681,-7.4627 -38.39404,-22.19615 z m 31.66863,-14.03817 c -39.19699,-17.24964 -39.05033,-17.11933 -31.3134,-27.84557 7.00789,-9.71531 77.42579,14.4231 77.42579,26.54056 0,13.86111 -16.51865,14.32828 -46.11239,1.30634 z m 20.51637,-25.85224 c -39.43187,-17.92801 -39.07664,-17.60275 -31.18338,-28.54582 4.41795,-6.12487 20.59028,-3.21943 47.4598,8.52501 22.41675,9.79888 38.01945,21.61229 34.67301,26.25211 -8.03372,11.1377 -14.48208,10.34926 -50.94943,-6.2313 z m 62.43874,-54.63911 c -58.34003,-50.513854 -59.23469,-52.012498 -37.12017,-62.153199 12.46369,-5.715397 34.19937,-7.910311 48.30184,-4.87755 21.44624,4.611972 24.57445,9.153321 19.12291,27.763343 -5.63146,19.225716 -3.76515,21.500876 13.73602,16.741356 27.825703,-7.56682 45.578783,21.16667 31.993683,51.78207 -5.49255,12.37805 -11.396443,22.50583 -13.119973,22.50583 -1.72198,0 -30.03488,-23.29294 -62.91431,-51.76185 z m -31.72359,28.32169 c -41.08459,-18.67931 -40.62255,-18.06759 -25.47104,-33.71017 11.82442,-12.2073 16.47687,-11.08829 42.41265,10.20171 45.96033,37.72866 38.1553,48.559 -16.94161,23.50846 z"
       id="path21"
       inkscape:connector-curvature="0" />
    <path
       style="fill:#fefefe;stroke-width:8.73715782"
       d="m 52.624326,254.56714 c -2.656498,-4.18887 -7.477675,-23.73824 -10.712314,-43.4434 -3.235307,-19.70549 -9.35529,-35.82802 -13.601672,-35.82802 -4.246384,0 -7.720909,-11.64161 -7.720909,-25.87081 0,-21.09982 3.682629,-25.87081 19.969574,-25.87081 13.785019,0 23.703059,-8.2164 32.024524,-26.530816 11.600939,-25.531516 32.196831,-40.928192 41.988741,-31.389157 2.58289,2.516192 -1.67286,16.578179 -9.46136,31.248027 L 90.952518,123.5541 h 40.289442 40.28978 l -14.1584,-26.671946 c -7.78716,-14.669848 -12.04492,-28.73151 -9.46135,-31.248027 9.79157,-9.539035 30.38746,5.857641 41.98841,31.389157 8.32179,18.314416 18.2395,26.530816 32.02451,26.530816 16.16015,0 19.96958,4.79804 19.96958,25.15214 0,13.83383 -4.02322,26.45878 -8.94109,28.05585 -4.91754,1.59706 -11.98903,20.35312 -15.71483,41.68076 l -6.77373,38.77738 -76.50448,2.48034 c -42.077402,1.36565 -78.678531,-0.94521 -81.336034,-5.13408 z m 62.621764,-51.08063 c -2.24497,-8.39045 -4.22832,-3.61327 -4.40899,10.61559 -0.16728,14.22887 1.65613,21.09396 4.08078,15.25522 2.42564,-5.8384 2.57285,-17.48003 0.33457,-25.87081 z m 26.55662,0 c -2.24497,-8.39045 -4.22831,-3.61327 -4.40898,10.61559 -0.16728,14.22887 1.65613,21.09396 4.08077,15.25522 2.42564,-5.8384 2.57285,-17.48003 0.33457,-25.87081 z m 26.55662,0 c -2.24497,-8.39045 -4.22831,-3.61327 -4.40898,10.61559 -0.16728,14.22887 1.65613,21.09396 4.08076,15.25522 2.42566,-5.8384 2.57286,-17.48003 0.33459,-25.87081 z"
       id="path34"
       inkscape:connector-curvature="0" />
  </g>
</svg>
