<?xml version="1.0" encoding="UTF-8" standalone="no"?>
<!-- Created with Inkscape (http://www.inkscape.org/) -->

<svg
   xmlns:dc="http://purl.org/dc/elements/1.1/"
   xmlns:cc="http://creativecommons.org/ns#"
   xmlns:rdf="http://www.w3.org/1999/02/22-rdf-syntax-ns#"
   xmlns:svg="http://www.w3.org/2000/svg"
   xmlns="http://www.w3.org/2000/svg"
   xmlns:sodipodi="http://sodipodi.sourceforge.net/DTD/sodipodi-0.dtd"
   xmlns:inkscape="http://www.inkscape.org/namespaces/inkscape"
   width="1000"
   height="1000"
   viewBox="0 0 264.58333 264.58334"
   version="1.1"
   id="svg8"
   inkscape:version="0.92.3 (2405546, 2018-03-11)">
  <defs
     id="defs2" />
  <sodipodi:namedview
     id="base"
     pagecolor="#ffffff"
     bordercolor="#666666"
     borderopacity="1.0"
     inkscape:pageopacity="0.0"
     inkscape:pageshadow="2"
     inkscape:zoom="0.35"
     inkscape:cx="350"
     inkscape:cy="560"
     inkscape:document-units="px"
     inkscape:current-layer="layer1"
     showgrid="false"
     units="px"
     inkscape:window-width="1366"
     inkscape:window-height="699"
     inkscape:window-x="-8"
     inkscape:window-y="-8"
     inkscape:window-maximized="1" />
  <metadata
     id="metadata5">
    <rdf:RDF>
      <cc:Work
         rdf:about="">
        <dc:format>image/svg+xml</dc:format>
        <dc:type
           rdf:resource="http://purl.org/dc/dcmitype/StillImage" />
        <dc:title></dc:title>
      </cc:Work>
    </rdf:RDF>
  </metadata>
  <g
     inkscape:label="Layer 1"
     inkscape:groupmode="layer"
     id="layer1"
     transform="translate(0,-32.41665)">
    <path
       style="fill:#4f4f4f;stroke-width:9.47712803"
       d="m -282.37273,225.01713 -29.72221,-26.7879 38.39404,15.56599 c 38.16225,15.47216 46.31052,24.63377 29.72221,33.41806 -4.76931,2.52647 -22.04681,-7.4627 -38.39404,-22.19615 z m 31.66863,-14.03817 c -39.19699,-17.24964 -39.05033,-17.11933 -31.3134,-27.84557 7.00789,-9.71531 77.42579,14.4231 77.42579,26.54056 0,13.86111 -16.51865,14.32828 -46.11239,1.30634 z m 20.51637,-25.85224 c -39.43187,-17.92801 -39.07664,-17.60275 -31.18338,-28.54582 4.41795,-6.12487 20.59028,-3.21943 47.4598,8.52501 22.41675,9.79888 38.01945,21.61229 34.67301,26.25211 -8.03372,11.1377 -14.48208,10.34926 -50.94943,-6.2313 z m 62.43874,-54.63911 c -58.34003,-50.513854 -59.23469,-52.012498 -37.12017,-62.153199 12.46369,-5.715397 34.19937,-7.910311 48.30184,-4.87755 21.44624,4.611972 24.57445,9.153321 19.12291,27.763343 -5.63146,19.225716 -3.76515,21.500876 13.73602,16.741356 27.825703,-7.56682 45.578783,21.16667 31.993683,51.78207 -5.49255,12.37805 -11.396443,22.50583 -13.119973,22.50583 -1.72198,0 -30.03488,-23.29294 -62.91431,-51.76185 z m -31.72359,28.32169 c -41.08459,-18.67931 -40.62255,-18.06759 -25.47104,-33.71017 11.82442,-12.2073 16.47687,-11.08829 42.41265,10.20171 45.96033,37.72866 38.1553,48.559 -16.94161,23.50846 z"
       id="path21"
       inkscape:connector-curvature="0" />
    <path
       style="fill:#fefefe;stroke-width:8.73715782"
       d="m -282.37273,225.01713 c -2.6565,-4.18887 -7.47768,-23.73824 -10.71232,-43.4434 -3.2353,-19.70549 -9.35529,-35.82802 -13.60167,-35.82802 -4.24638,0 -7.72091,-11.64161 -7.72091,-25.87081 0,-21.09982 3.68263,-25.87081 19.96958,-25.87081 13.78501,0 23.70305,-8.2164 32.02452,-26.530816 11.60094,-25.531516 32.19683,-40.928192 41.98874,-31.389157 2.58289,2.516192 -1.67286,16.578179 -9.46136,31.248027 l -14.15839,26.671946 h 40.28944 40.28978 l -14.1584,-26.671946 c -7.78716,-14.669848 -12.04492,-28.73151 -9.46135,-31.248027 9.79157,-9.539035 30.38746,5.857641 41.98841,31.389157 8.32179,18.314416 18.2395,26.530816 32.02451,26.530816 16.16015,0 19.96958,4.79804 19.96958,25.15214 0,13.83383 -4.02322,26.45878 -8.94109,28.05585 -4.91754,1.59706 -11.98903,20.35312 -15.71483,41.68076 l -6.77373,38.77738 -76.50448,2.48034 c -42.0774,1.36565 -78.67853,-0.94521 -81.33603,-5.13408 z m 62.62176,-51.08063 c -2.24497,-8.39045 -4.22832,-3.61327 -4.40899,10.61559 -0.16728,14.22887 1.65613,21.09396 4.08078,15.25522 2.42564,-5.8384 2.57285,-17.48003 0.33457,-25.87081 z m 26.55662,0 c -2.24497,-8.39045 -4.22831,-3.61327 -4.40898,10.61559 -0.16728,14.22887 1.65613,21.09396 4.08077,15.25522 2.42564,-5.8384 2.57285,-17.48003 0.33457,-25.87081 z m 26.55662,0 c -2.24497,-8.39045 -4.22831,-3.61327 -4.40898,10.61559 -0.16728,14.22887 1.65613,21.09396 4.08076,15.25522 2.42566,-5.8384 2.57286,-17.48003 0.33459,-25.87081 z"
       id="path34"
       inkscape:connector-curvature="0" />
    <path
       style="fill:#fefefe;stroke-width:5.08716822"
       d="m 87.050823,274.56989 c -3.61719,-6.37502 -10.9676,-9.88109 -20.71508,-9.88109 h -15.10863 l 8.2302,-19.76254 c 8.27376,-19.86656 13.74063,-23.97222 19.73649,-14.82181 1.77979,2.71731 8.85184,4.94073 15.71424,4.94073 6.862197,0 13.933657,-2.22342 15.714237,-4.94073 1.77979,-2.71733 6.43517,-4.94055 10.34378,-4.94055 5.2293,0 3.43743,7.82984 -6.7842,29.64363 -7.63984,16.3039 -15.608117,29.64363 -17.707447,29.64363 -2.09932,0 -6.33994,-4.44645 -9.42359,-9.88127 z m 60.546587,-18.04443 c -7.45494,-15.35904 -12.64662,-28.78186 -11.53697,-29.82849 1.10866,-1.0457 8.21496,0.75999 15.78947,4.01566 10.38238,4.46176 16.98009,4.54001 26.80557,0.31744 11.78068,-5.06285 13.79428,-4.21303 20.95225,8.84286 11.25744,20.533 9.97298,24.81587 -7.44226,24.81587 -10.76091,0 -16.35706,2.95914 -18.68624,9.88109 -5.35719,15.92017 -11.46194,11.66381 -25.88182,-18.04443 z M 83.431453,223.92867 c -2.33076,-3.39665 -6.59474,-12.68523 -9.47586,-20.64149 -2.88093,-7.95606 -12.30947,-18.12882 -20.95225,-22.6059 -19.57752,-10.14139 -22.29789,-24.96862 -7.94116,-43.28418 9.1583,-11.68398 10.11531,-16.44657 5.57041,-27.72179 -8.47292,-21.019431 0.74636,-32.729549 25.76976,-32.729549 16.70056,0 22.44558,-2.694535 31.600917,-14.821816 14.12727,-18.713302 27.59945,-18.789489 45.10793,-0.255825 10.28419,10.886819 19.22612,14.943003 35.39748,16.056859 l 21.63705,1.490115 -1.38187,25.111096 c -1.09876,19.95991 0.782,26.95805 9.16682,34.11491 16.8522,14.38506 13.61234,30.95673 -7.94848,40.65463 -11.95965,5.37917 -19.51911,12.77188 -21.38998,20.91748 -5.01272,21.82742 -6.80399,25.09616 -15.47073,28.23306 -4.64864,1.68245 -16.76093,-0.67783 -26.91624,-5.24585 -16.71896,-7.51986 -19.62701,-7.58615 -30.76803,-0.70024 -14.90313,9.21035 -26.316767,9.71956 -32.006167,1.42849 z m 82.190567,-37.725 c 7.20251,-4.87892 16.38754,-17.65061 20.41138,-28.38169 6.54207,-17.4467 6.32885,-21.47338 -2.01597,-38.05962 -10.83279,-21.532007 -30.89514,-32.935332 -57.94462,-32.935332 -27.879577,0 -54.736227,26.096102 -54.736227,53.186182 0,23.01896 14.88195,43.53141 38.841447,53.53723 18.56606,7.75347 36.69994,5.35061 55.44399,-7.34677 z m -69.812797,-5.71921 c -7.80357,-5.78979 -15.0625,-17.4142 -17.02008,-27.2557 -6.72441,-33.80887 17.90503,-61.46119 54.742367,-61.46119 19.38509,0 45.64583,20.07682 49.20027,37.61426 3.95514,19.51457 -5.20278,44.35546 -19.64206,53.27899 -18.06935,11.1671 -50.71913,10.11095 -67.280497,-2.17636 z m 46.241527,-37.6208 15.71425,-12.77635 -19.64285,10.88663 c -10.80348,5.98773 -19.64285,8.48228 -19.64285,5.54331 0,-2.93896 -2.64574,-5.34369 -5.87945,-5.34369 -4.06204,0 -3.86387,2.29063 0.64144,7.411 8.53389,9.69883 10.26756,9.3545 28.80946,-5.7209 z"
       id="path47"
       inkscape:connector-curvature="0" />
  </g>
</svg>
