<svg xmlns="http://www.w3.org/2000/svg" width="17" height="23" viewBox="0 0 17 23">
  <metadata><?xpacket begin="﻿" id="W5M0MpCehiHzreSzNTczkc9d"?>
<x:xmpmeta xmlns:x="adobe:ns:meta/" x:xmptk="Adobe XMP Core 5.6-c142 79.160924, 2017/07/13-01:06:39        ">
   <rdf:RDF xmlns:rdf="http://www.w3.org/1999/02/22-rdf-syntax-ns#">
      <rdf:Description rdf:about=""/>
   </rdf:RDF>
</x:xmpmeta>
                                                                                                    
                                                                                                    
                                                                                                    
                                                                                                    
                                                                                                    
                                                                                                    
                                                                                                    
                                                                                                    
                                                                                                    
                                                                                                    
                                                                                                    
                                                                                                    
                                                                                                    
                                                                                                    
                                                                                                    
                                                                                                    
                                                                                                    
                                                                                                    
                                                                                                    
                                                                                                    
                           
<?xpacket end="w"?></metadata>
<defs>
    <style>
      .cls-1 {
        fill: #fff;
        fill-rule: evenodd;
      }
    </style>
  </defs>
  <path id="Фігура_11" data-name="Фігура 11" class="cls-1" d="M974.986,683.283V679h-0.048a0.662,0.662,0,0,0-.47.2l-4.273,4.331a0.677,0.677,0,0,0-.2.476v0.048h4.226A0.765,0.765,0,0,0,974.986,683.283ZM984.91,679h-8.594v4.283a2.106,2.106,0,0,1-2.09,2.117H970v14.483A2.106,2.106,0,0,0,972.089,702H984.91a2.1,2.1,0,0,0,2.09-2.117V681.117A2.1,2.1,0,0,0,984.91,679Zm-9.729,11.745a0.659,0.659,0,0,1,.94,0l1.714,1.737v-4.869a0.665,0.665,0,1,1,1.33,0v4.869l1.714-1.737a0.659,0.659,0,0,1,.94,0,0.68,0.68,0,0,1,0,.953l-2.849,2.887a0.659,0.659,0,0,1-.94,0l-2.849-2.887A0.68,0.68,0,0,1,975.181,690.745Zm6.168,6.925h-5.7a0.674,0.674,0,0,1,0-1.348h5.7A0.674,0.674,0,0,1,981.349,697.67Z" transform="translate(-970 -679)"/>
</svg>
