<?xml version="1.0" encoding="UTF-8" standalone="no"?>
<svg
   xmlns:dc="http://purl.org/dc/elements/1.1/"
   xmlns:cc="http://creativecommons.org/ns#"
   xmlns:rdf="http://www.w3.org/1999/02/22-rdf-syntax-ns#"
   xmlns:svg="http://www.w3.org/2000/svg"
   xmlns="http://www.w3.org/2000/svg"
   id="svg8"
   version="1.1"
   viewBox="0 0 264.58333 264.58334"
   height="1000"
   width="1000">
  <defs
     id="defs2" />
  <metadata
     id="metadata5">
    <rdf:RDF>
      <cc:Work
         rdf:about="">
        <dc:format>image/svg+xml</dc:format>
        <dc:type
           rdf:resource="http://purl.org/dc/dcmitype/StillImage" />
        <dc:title></dc:title>
      </cc:Work>
    </rdf:RDF>
  </metadata>
  <g
     transform="translate(0,-32.41665)"
     id="layer1">
    <path
       id="path21"
       d="m -282.37273,225.01713 -29.72221,-26.7879 38.39404,15.56599 c 38.16225,15.47216 46.31052,24.63377 29.72221,33.41806 -4.76931,2.52647 -22.04681,-7.4627 -38.39404,-22.19615 z m 31.66863,-14.03817 c -39.19699,-17.24964 -39.05033,-17.11933 -31.3134,-27.84557 7.00789,-9.71531 77.42579,14.4231 77.42579,26.54056 0,13.86111 -16.51865,14.32828 -46.11239,1.30634 z m 20.51637,-25.85224 c -39.43187,-17.92801 -39.07664,-17.60275 -31.18338,-28.54582 4.41795,-6.12487 20.59028,-3.21943 47.4598,8.52501 22.41675,9.79888 38.01945,21.61229 34.67301,26.25211 -8.03372,11.1377 -14.48208,10.34926 -50.94943,-6.2313 z m 62.43874,-54.63911 c -58.34003,-50.513854 -59.23469,-52.012498 -37.12017,-62.153199 12.46369,-5.715397 34.19937,-7.910311 48.30184,-4.87755 21.44624,4.611972 24.57445,9.153321 19.12291,27.763343 -5.63146,19.225716 -3.76515,21.500876 13.73602,16.741356 27.825703,-7.56682 45.578783,21.16667 31.993683,51.78207 -5.49255,12.37805 -11.396443,22.50583 -13.119973,22.50583 -1.72198,0 -30.03488,-23.29294 -62.91431,-51.76185 z m -31.72359,28.32169 c -41.08459,-18.67931 -40.62255,-18.06759 -25.47104,-33.71017 11.82442,-12.2073 16.47687,-11.08829 42.41265,10.20171 45.96033,37.72866 38.1553,48.559 -16.94161,23.50846 z"
       style="fill:#4f4f4f;stroke-width:9.47712803" />
    <path
       id="path34"
       d="m -282.37273,225.01713 c -2.6565,-4.18887 -7.47768,-23.73824 -10.71232,-43.4434 -3.2353,-19.70549 -9.35529,-35.82802 -13.60167,-35.82802 -4.24638,0 -7.72091,-11.64161 -7.72091,-25.87081 0,-21.09982 3.68263,-25.87081 19.96958,-25.87081 13.78501,0 23.70305,-8.2164 32.02452,-26.530816 11.60094,-25.531516 32.19683,-40.928192 41.98874,-31.389157 2.58289,2.516192 -1.67286,16.578179 -9.46136,31.248027 l -14.15839,26.671946 h 40.28944 40.28978 l -14.1584,-26.671946 c -7.78716,-14.669848 -12.04492,-28.73151 -9.46135,-31.248027 9.79157,-9.539035 30.38746,5.857641 41.98841,31.389157 8.32179,18.314416 18.2395,26.530816 32.02451,26.530816 16.16015,0 19.96958,4.79804 19.96958,25.15214 0,13.83383 -4.02322,26.45878 -8.94109,28.05585 -4.91754,1.59706 -11.98903,20.35312 -15.71483,41.68076 l -6.77373,38.77738 -76.50448,2.48034 c -42.0774,1.36565 -78.67853,-0.94521 -81.33603,-5.13408 z m 62.62176,-51.08063 c -2.24497,-8.39045 -4.22832,-3.61327 -4.40899,10.61559 -0.16728,14.22887 1.65613,21.09396 4.08078,15.25522 2.42564,-5.8384 2.57285,-17.48003 0.33457,-25.87081 z m 26.55662,0 c -2.24497,-8.39045 -4.22831,-3.61327 -4.40898,10.61559 -0.16728,14.22887 1.65613,21.09396 4.08077,15.25522 2.42564,-5.8384 2.57285,-17.48003 0.33457,-25.87081 z m 26.55662,0 c -2.24497,-8.39045 -4.22831,-3.61327 -4.40898,10.61559 -0.16728,14.22887 1.65613,21.09396 4.08076,15.25522 2.42566,-5.8384 2.57286,-17.48003 0.33459,-25.87081 z"
       style="fill:#fefefe;stroke-width:8.73715782" />
    <path
       id="path47"
       d="m -201.94639,268.02193 c -3.61719,-6.37502 -10.9676,-9.88109 -20.71508,-9.88109 h -15.10863 l 8.2302,-19.76254 c 8.27376,-19.86656 13.74063,-23.97222 19.73649,-14.82181 1.77979,2.71731 8.85184,4.94073 15.71424,4.94073 6.8622,0 13.93366,-2.22342 15.71424,-4.94073 1.77979,-2.71733 6.43517,-4.94055 10.34378,-4.94055 5.2293,0 3.43743,7.82984 -6.7842,29.64363 -7.63984,16.3039 -15.60812,29.64363 -17.70745,29.64363 -2.09932,0 -6.33994,-4.44645 -9.42359,-9.88127 z m 60.54659,-18.04443 c -7.45494,-15.35904 -12.64662,-28.78186 -11.53697,-29.82849 1.10866,-1.0457 8.21496,0.75999 15.78947,4.01566 10.38238,4.46176 16.98009,4.54001 26.80557,0.31744 11.780677,-5.06285 13.794277,-4.21303 20.952247,8.84286 11.25744,20.533 9.97298,24.81587 -7.44226,24.81587 -10.760907,0 -16.357057,2.95914 -18.686237,9.88109 -5.35719,15.92017 -11.46194,11.66381 -25.88182,-18.04443 z m -64.16596,-32.59679 c -2.33076,-3.39665 -6.59474,-12.68523 -9.47586,-20.64149 -2.88093,-7.95606 -12.30947,-18.12882 -20.95225,-22.6059 -19.57752,-10.14139 -22.29789,-24.96862 -7.94116,-43.28418 9.1583,-11.68398 10.11531,-16.44657 5.57041,-27.72179 -8.47292,-21.019431 0.74636,-32.729549 25.76976,-32.729549 16.70056,0 22.44558,-2.694535 31.60092,-14.821816 14.12727,-18.713302 27.59945,-18.789489 45.10793,-0.255825 10.28419,10.886819 19.22612,14.943003 35.39748,16.056859 l 21.637047,1.490115 -1.38187,25.111096 c -1.09876,19.95991 0.782,26.95805 9.16682,34.11491 16.8522,14.38506 13.61234,30.95673 -7.94848,40.65463 -11.95965,5.37917 -19.51911,12.77188 -21.389977,20.91748 -5.01272,21.82742 -6.80399,25.09616 -15.47073,28.23306 -4.64864,1.68245 -16.76093,-0.67783 -26.91624,-5.24585 -16.71896,-7.51986 -19.62701,-7.58615 -30.76803,-0.70024 -14.90313,9.21035 -26.31677,9.71956 -32.00617,1.42849 z m 82.19057,-37.725 c 7.20251,-4.87892 16.38754,-17.65061 20.41138,-28.38169 6.542067,-17.4467 6.328847,-21.47338 -2.01597,-38.05962 -10.83279,-21.532007 -30.89514,-32.935332 -57.94462,-32.935332 -27.87958,0 -54.73623,26.096102 -54.73623,53.186182 0,23.01896 14.88195,43.53141 38.84145,53.53723 18.56606,7.75347 36.69994,5.35061 55.44399,-7.34677 z m -69.8128,-5.71921 c -7.80357,-5.78979 -15.0625,-17.4142 -17.02008,-27.2557 -6.72441,-33.80887 17.90503,-61.46119 54.74237,-61.46119 19.38509,0 45.64583,20.07682 49.20027,37.61426 3.95514,19.51457 -5.20278,44.35546 -19.64206,53.27899 -18.06935,11.1671 -50.71913,10.11095 -67.2805,-2.17636 z m 46.24153,-37.6208 15.71425,-12.77635 -19.64285,10.88663 c -10.80348,5.98773 -19.64285,8.48228 -19.64285,5.54331 0,-2.93896 -2.64574,-5.34369 -5.87945,-5.34369 -4.06204,0 -3.86387,2.29063 0.64144,7.411 8.53389,9.69883 10.26756,9.3545 28.80946,-5.7209 z"
       style="fill:#fefefe;stroke-width:5.08716822" />
    <path
       id="path60"
       d="m -277.97622,389.76054 c -3.79008,-2.48171 -7.83085,-9.32103 -8.97969,-15.19854 -1.14921,-5.87731 -4.81004,-10.6862 -8.13611,-10.6862 -8.16429,0 -13.02119,-16.36437 -10.62677,-35.80492 1.57745,-12.80779 0.89865,-15.95027 -3.44845,-15.95027 -3.43738,0 -5.0229,-3.30543 -4.34421,-9.05716 0.92996,-7.8786 5.72951,-9.24768 36.88669,-10.52051 28.94864,-1.18345 35.81795,-2.91988 35.81795,-9.05716 0,-6.11224 -5.59652,-7.59379 -28.68493,-7.59379 -26.56012,0 -28.68494,-0.7668 -28.68494,-10.35112 0,-9.57924 2.12482,-10.35112 28.4969,-10.35112 17.47032,0 29.34422,-2.22644 30.68688,-5.75407 4.20616,-11.05141 -6.86836,-14.79011 -44.04451,-14.86875 -31.14213,-0.0587 -37.44974,-1.38687 -37.44974,-7.84241 0,-6.48273 6.50818,-7.76339 39.44988,-7.76339 29.11426,0 40.38008,-1.81917 42.99976,-6.94554 5.85624,-11.45847 0.77938,-13.7565 -30.39176,-13.7565 -27.52718,0 -29.74741,-0.76483 -29.74741,-10.25253 0,-14.72868 8.27463,-16.60067 65.00402,-14.70638 53.23106,1.7781 55.9524,3.16439 56.06142,28.57008 0.0482,10.06044 1.98184,11.5551 16.78164,12.93885 16.51542,1.54336 16.84344,1.90133 25.22998,27.44199 4.67332,14.23262 10.05181,28.69038 11.95197,32.12843 1.90028,3.43805 3.45509,19.80497 3.45509,36.37102 0,31.20906 -5.94516,53.12525 -14.41108,53.12525 -2.46838,0 -6.0055,4.60467 -7.86036,10.23258 -8.05793,24.44916 -32.37602,25.83486 -39.00142,2.22233 -3.31196,-11.80391 -4.98361,-12.45491 -31.98281,-12.45491 -27.54393,0 -28.78432,0.51446 -37.42022,15.52658 -9.14918,15.90431 -15.49956,18.28704 -27.60777,10.35816 z m 19.35807,-27.38957 c 4.97929,-12.81835 -5.23971,-28.93743 -12.3072,-19.41277 -5.93949,8.00458 -6.49722,24.2197 -0.95647,27.81835 5.76614,3.74535 9.45094,1.41035 13.26391,-8.40558 z m 105.17811,0 c 4.97929,-12.81835 -5.23971,-28.93743 -12.3072,-19.41277 -5.93588,7.99969 -6.3057,16.631 -1.07573,25.12284 4.68873,7.61355 8.90706,5.81393 13.38353,-5.71007 z m -7.68629,-45.0749 c 3.23692,0 10.09903,5.7576 15.24913,12.79449 11.11115,15.18191 13.43581,12.81893 13.43581,-13.65694 v -19.83959 h -15.29863 c -8.41426,0 -17.0198,-2.79469 -19.12331,-6.21063 -2.10361,-3.41575 -3.82464,-17.38977 -3.82464,-31.05316 0,-17.92907 -1.25089,-24.84253 -4.49479,-24.84253 -3.36341,0 -5.03061,11.39803 -6.62419,45.28578 -1.17089,24.90727 -2.9212,49.82432 -3.88899,55.37125 -1.50698,8.63718 -0.29151,8.07969 8.46231,-3.8817 5.62208,-7.68181 12.87037,-13.96697 16.1073,-13.96697 z"
       style="fill:#fefefe;stroke-width:4.06146765" />
    <path
       id="path73"
       d="m 320.89738,220.32767 -31.35997,-59.32252 25.00424,-46.4067 c 38.51611,-71.483527 41.344,-73.526143 101.78854,-73.526143 h 56.15448 l 33.34086,60.282323 33.34127,60.28274 -33.10661,59.04455 -33.10661,59.04453 -60.34811,-0.0378 -60.34852,-0.0381 z m 139.45041,-34.05831 c 16.32367,-25.42124 16.58846,-31.34082 2.54743,-56.95189 -19.05433,-34.755307 -57.3623,-42.388287 -84.93769,-16.924 -25.04643,23.12893 -26.16184,56.05647 -2.79253,82.40758 25.51091,28.7644 63.68749,24.94074 85.18077,-8.53169 z"
       style="fill:#4d4d4d;stroke-width:10.73894119" />
    <path
       id="path88"
       d="m -234.18291,251.3736 c -26.50292,-11.87165 -62.06837,-75.57651 -62.06837,-111.17743 0,-87.991829 115.99831,-156.298629 191.11448,-112.539919 44.68258,26.02928 58.61477,116.921589 26.40929,172.291589 -27.46468,47.2196 -106.48632,73.36018 -155.4554,51.42576 z m 110.80772,-71.71789 c 18.89201,-15.89527 23.00786,-26.90802 20.48528,-54.81232 -4.37011,-48.3373 -16.17044,-60.662709 -58.07792,-60.662709 -27.76316,0 -42.34137,6.97977 -62.86362,30.098049 -30.34136,34.18045 -34.04576,67.27511 -10.77293,96.24496 19.76465,24.60257 75.54869,19.15185 111.22919,-10.86798 z"
       style="fill:#414141;stroke-width:9.70137691" />
    <path
       id="path101"
       d="m -286.34414,258.17717 c -11.82976,-13.8455 -14.09586,-29.22405 -6.69205,-45.41568 2.46908,-5.39957 24.88555,-25.9659 49.81432,-45.70303 41.91982,-33.18949 45.55311,-37.46485 48.35964,-56.90718 6.30743,-43.695226 46.25145,-74.636306 83.16338,-64.419337 8.90151,2.463818 16.850755,6.832679 17.664945,9.708171 0.81436,2.875694 -7.858685,12.134307 -19.272835,20.574599 -13.66234,10.102516 -19.88506,17.993491 -18.21243,23.094821 1.39801,4.262066 2.55361,11.751456 2.56946,16.643216 0.0159,4.89176 5.95069,12.83695 13.18887,17.65577 12.7433,8.48443 13.78819,8.27365 32.997145,-6.65494 l 19.8372,-15.41704 1.39801,18.33042 c 1.80399,23.66369 -9.40596,48.65932 -27.81174,62.01355 -11.268505,8.17591 -21.314245,10.30644 -44.193155,9.37205 -29.58286,-1.20903 -29.6507,-1.17679 -75.12806,34.5009 -25.03498,19.64061 -50.23939,35.71013 -56.00966,35.71013 -5.77008,0 -15.5228,-5.88882 -21.67252,-13.08642 z"
       style="fill:#fefefe;stroke-width:4.92816114" />
    <path
       id="path114"
       d="m -234.18291,251.3736 c -59.5599,-34.72405 -66.54833,-113.46382 -13.73208,-154.71737 15.2469,-11.90917 25.41835,-23.791627 22.60253,-26.405105 -8.66778,-8.04593 51.27875,-32.582068 79.51867,-32.546981 37.59851,0.03347 83.160646,28.374978 97.568786,60.663326 13.2353,29.66117 7.8434,76.94533 -11.58727,101.61245 -9.98173,12.6714 -11.3162,8.52679 -8.36035,-25.97035 6.02943,-70.37371 -35.391056,-111.221273 -110.011386,-108.489829 -31.53272,1.152849 -32.51297,1.767714 -7.61661,4.778174 74.65632,9.022691 109.533686,42.085615 109.533686,103.835625 0,70.12008 -92.513486,115.3702 -157.915976,77.24006 z m 89.12421,-41.79757 c 41.17067,-26.76833 16.79737,-92.33278 -34.32443,-92.33278 -52.75325,0 -76.97248,53.86479 -39.75375,88.4134 22.88404,21.2423 45.58735,22.44361 74.07818,3.91938 z"
       style="fill:#4e4e4e;stroke-width:9.17664909" />
    <path
       id="path127"
       d="m 76.244088,277.09336 c -1.64959,-1.87756 -2.99922,-10.77582 -2.99922,-19.77379 0,-11.20285 -2.97828,-19.10182 -9.44793,-25.05729 -8.97879,-8.2653 -9.51458,-12.52856 -10.78962,-85.84508 -1.33313,-76.689055 -1.40296,-77.174068 -11.54744,-81.564314 -14.64618,-6.33807 -13.25274,-18.991266 2.09142,-18.991266 14.04484,0 24.3247,9.758467 28.04302,26.620901 l 2.56104,11.61434 h 79.327582 c 92.04594,0 85.68088,-5.150005 70.51002,57.047859 -13.98295,57.3273 -14.48985,57.65768 -88.49363,57.65768 -48.281202,0 -62.254462,1.39454 -62.254462,6.21307 0,15.29992 10.01942,17.6838 74.324052,17.6838 61.44664,0 64.24605,0.41728 64.24605,9.55885 0,5.5933 -2.79941,9.55886 -6.74785,9.55886 -4.29014,0 -5.86244,2.62612 -4.3168,7.21055 1.3363,3.96574 0.59832,12.69872 -1.64293,19.40655 -3.51676,10.52799 -6.22857,11.99315 -19.82793,10.71224 -14.89993,-1.40356 -15.82471,-2.4556 -17.05722,-19.40674 l -1.30298,-17.9226 H 136.2316 111.5441 l -1.30297,17.9226 c -1.21728,16.73365 -2.28838,18.01726 -16.150242,19.34514 -8.16574,0.78217 -16.19658,-0.10838 -17.84617,-1.99136 z"
       style="fill:#fefefe;stroke-width:4.47985888" />
  </g>
</svg>
