<svg xmlns="http://www.w3.org/2000/svg" width="21" height="16" viewBox="0 0 21 16">
  <metadata><?xpacket begin="﻿" id="W5M0MpCehiHzreSzNTczkc9d"?>
<x:xmpmeta xmlns:x="adobe:ns:meta/" x:xmptk="Adobe XMP Core 5.6-c142 79.160924, 2017/07/13-01:06:39        ">
   <rdf:RDF xmlns:rdf="http://www.w3.org/1999/02/22-rdf-syntax-ns#">
      <rdf:Description rdf:about=""/>
   </rdf:RDF>
</x:xmpmeta>
                                                                                                    
                                                                                                    
                                                                                                    
                                                                                                    
                                                                                                    
                                                                                                    
                                                                                                    
                                                                                                    
                                                                                                    
                                                                                                    
                                                                                                    
                                                                                                    
                                                                                                    
                                                                                                    
                                                                                                    
                                                                                                    
                                                                                                    
                                                                                                    
                                                                                                    
                                                                                                    
                           
<?xpacket end="w"?></metadata>
<defs>
    <style>
      .cls-1 {
        fill: #0e5796;
        fill-rule: evenodd;
      }
    </style>
  </defs>
  <path id="Фігура_12" data-name="Фігура 12" class="cls-1" d="M409.154,770H391.846a1.829,1.829,0,0,0-.791.185l9.4,9.406,2.108-2.026h0l7.378-7.38A1.826,1.826,0,0,0,409.154,770Zm1.661,1.055L403.872,778l6.943,6.945a1.829,1.829,0,0,0,.185-0.791V771.846A1.829,1.829,0,0,0,410.815,771.055Zm-20.63,0a1.829,1.829,0,0,0-.185.791v12.308a1.829,1.829,0,0,0,.185.791L397.128,778ZM403,778.87l-2.108,2.027a0.616,0.616,0,0,1-.87,0L398,778.87l-6.943,6.945a1.826,1.826,0,0,0,.791.185h17.308a1.829,1.829,0,0,0,.791-0.185Z" transform="translate(-390 -770)"/>
</svg>
