<svg xmlns="http://www.w3.org/2000/svg" width="26" height="24" viewBox="0 0 26 24">
  <defs>
    <style>
      .cls-1 {
        fill: #153c6c;
        fill-rule: evenodd;
      }
    </style>
  </defs>
  <path id="Гровер" class="cls-1" d="M1244.2,218.6l0.73,1.711,3.79-.412-1.28-1.636Zm-3.91-6.7a4.521,4.521,0,0,1,4.6,4.061,3.7,3.7,0,0,1,0,.881,2.848,2.848,0,0,0,.11-1.314,6.243,6.243,0,0,0-1.1-2.784,4.926,4.926,0,0,0-3.51-1.887c-2.23-.273-7.8-0.392-11.19,4.4a7.861,7.861,0,0,0-1.32,6.734,4.991,4.991,0,0,0,2.79,3.37,8.623,8.623,0,0,0,4.12.642,8.269,8.269,0,0,1-.97-0.049,5.754,5.754,0,0,1-5-4.457c-0.5-2.12.61-4.744,3.11-6.972S1237.14,211.762,1240.29,211.905ZM1224,219.539c0.03,1.868.05,3.632,3.06,7.21,1.47,1.746,4.09,2.757,7.4,2.846a18.519,18.519,0,0,0,8.37-1.726c4.25-2.116,6.36-7.463,6.38-7.517v0c-0.7-.159-3.64-0.659-5.21,1.834-1.29,2.046-4.56,3.271-7.33,3.675a0.238,0.238,0,0,1-.03.018,6.512,6.512,0,0,1-2.61.477,9.185,9.185,0,0,1-3.47-.709,5.294,5.294,0,0,1-2.97-3.565,8.2,8.2,0,0,1,1.37-6.994c3.48-4.923,9.18-4.8,11.47-4.524,2.71,0.332,4.4,2.034,4.86,4.923a3.682,3.682,0,0,1-.82,2.787l3.02-.313a0.143,0.143,0,0,1,.13.056l1.34,1.713a10.046,10.046,0,0,0,.68-4.588,8.635,8.635,0,0,0-2.6-5.355c-1.11-1.222-4.25-3.235-9.61-2.7s-9.01,2.823-12.12,7.28a9.88,9.88,0,0,0-1.31,4.93v0.24Zm25.45,1.013a18.718,18.718,0,0,1-1.57,2.924,13.418,13.418,0,0,1-4.92,4.663,18.738,18.738,0,0,1-8.02,1.765c-0.17,0-.33,0-0.49-0.007-3.39-.092-6.25-1.037-7.77-2.849a13.981,13.981,0,0,1-2.42-4.091,10.4,10.4,0,0,0,1.99,4.192c3.5,4.26,9.11,4.2,13.11,3.481s6.75-3.486,8.32-5.1a11.536,11.536,0,0,0,2.32-3.99Z" transform="translate(-1224 -207)"/>
</svg>
