<svg xmlns="http://www.w3.org/2000/svg" width="48" height="48" viewBox="0 0 48 48">
  <metadata><?xpacket begin="﻿" id="W5M0MpCehiHzreSzNTczkc9d"?>
<x:xmpmeta xmlns:x="adobe:ns:meta/" x:xmptk="Adobe XMP Core 5.6-c142 79.160924, 2017/07/13-01:06:39        ">
   <rdf:RDF xmlns:rdf="http://www.w3.org/1999/02/22-rdf-syntax-ns#">
      <rdf:Description rdf:about=""/>
   </rdf:RDF>
</x:xmpmeta>
                                                                                                    
                                                                                                    
                                                                                                    
                                                                                                    
                                                                                                    
                                                                                                    
                                                                                                    
                                                                                                    
                                                                                                    
                                                                                                    
                                                                                                    
                                                                                                    
                                                                                                    
                                                                                                    
                                                                                                    
                                                                                                    
                                                                                                    
                                                                                                    
                                                                                                    
                                                                                                    
                           
<?xpacket end="w"?></metadata>
<defs>
    <style>
      .cls-1 {
        fill: #fff;
        fill-rule: evenodd;
      }
    </style>
  </defs>
  <path id="_2" data-name="2" class="cls-1" d="M680,1896a18.464,18.464,0,0,0-18.281,18.47v16.87a4.219,4.219,0,1,0,8.437,0v-14.06a4.222,4.222,0,0,0-4.218-4.22,4.3,4.3,0,0,0-1.348.24,15.439,15.439,0,0,1,30.82,0,4.3,4.3,0,0,0-1.347-.24,4.222,4.222,0,0,0-4.219,4.22v14.06a4.211,4.211,0,0,0,2.812,3.96v1.67a1.405,1.405,0,0,1-1.406,1.4h-7.29a4.22,4.22,0,1,0,0,2.82h7.29a4.223,4.223,0,0,0,4.219-4.22v-1.67a4.211,4.211,0,0,0,2.812-3.96v-16.87A18.464,18.464,0,0,0,680,1896Zm-24,24.09v8.44a4.3,4.3,0,0,0,2.906,3.96v-16.36A4.307,4.307,0,0,0,656,1920.09Zm45.094-3.96v16.36a4.3,4.3,0,0,0,2.906-3.96v-8.44A4.307,4.307,0,0,0,701.094,1916.13Z" transform="translate(-656 -1896)"/>
</svg>
