<svg xmlns="http://www.w3.org/2000/svg" width="36.56" height="46.72" viewBox="0 0 36.56 46.72">
  <metadata><?xpacket begin="﻿" id="W5M0MpCehiHzreSzNTczkc9d"?>
<x:xmpmeta xmlns:x="adobe:ns:meta/" x:xmptk="Adobe XMP Core 5.6-c142 79.160924, 2017/07/13-01:06:39        ">
   <rdf:RDF xmlns:rdf="http://www.w3.org/1999/02/22-rdf-syntax-ns#">
      <rdf:Description rdf:about=""/>
   </rdf:RDF>
</x:xmpmeta>
                                                                                                    
                                                                                                    
                                                                                                    
                                                                                                    
                                                                                                    
                                                                                                    
                                                                                                    
                                                                                                    
                                                                                                    
                                                                                                    
                                                                                                    
                                                                                                    
                                                                                                    
                                                                                                    
                                                                                                    
                                                                                                    
                                                                                                    
                                                                                                    
                                                                                                    
                                                                                                    
                           
<?xpacket end="w"?></metadata>
<defs>
    <style>
      .cls-1 {
        fill: #fff;
        fill-rule: evenodd;
      }
    </style>
  </defs>
  <path id="_4" data-name="4" class="cls-1" d="M1209.63,1934.01a5.8,5.8,0,0,1-6.57.99,6.115,6.115,0,0,1-2.03-1.57l-3.04,6.73a0.583,0.583,0,0,0,.69.8l2.22-.62a2.763,2.763,0,0,1,.75-0.1,2.82,2.82,0,0,1,2.55,1.6l1,2.06a0.562,0.562,0,0,0,.53.34,0.594,0.594,0,0,0,.53-0.35l4.84-10.7A3.638,3.638,0,0,0,1209.63,1934.01Zm16.95,6.15-3.04-6.73a6.115,6.115,0,0,1-2.03,1.57,5.8,5.8,0,0,1-6.57-.99,3.638,3.638,0,0,0-1.47-.82l4.84,10.7a0.594,0.594,0,0,0,.53.35,0.562,0.562,0,0,0,.53-0.34l1-2.06a2.831,2.831,0,0,1,2.55-1.6,2.888,2.888,0,0,1,.76.1l2.21,0.62a0.577,0.577,0,0,0,.6-0.18A0.555,0.555,0,0,0,1226.58,1940.16Zm2.39-23.67a5.931,5.931,0,0,1-1.78-7.82,3.675,3.675,0,0,0-4.26-5.34,5.935,5.935,0,0,1-7.23-3.48,3.673,3.673,0,0,0-6.83,0,5.935,5.935,0,0,1-7.23,3.48,3.675,3.675,0,0,0-4.26,5.34,5.931,5.931,0,0,1-1.78,7.82,3.663,3.663,0,0,0,1.52,6.65,5.938,5.938,0,0,1,5,6.27,3.67,3.67,0,0,0,6.15,2.96,5.947,5.947,0,0,1,8.03,0,3.67,3.67,0,0,0,6.15-2.96,5.938,5.938,0,0,1,5-6.27A3.663,3.663,0,0,0,1228.97,1916.49Zm-16.68,11.68a12.005,12.005,0,1,1,12.01-12A12.02,12.02,0,0,1,1212.29,1928.17Zm0-21.77a9.765,9.765,0,1,0,9.77,9.77A9.786,9.786,0,0,0,1212.29,1906.4Zm5,8.82-6.08,4.44a1.113,1.113,0,0,1-.66.22,1.1,1.1,0,0,1-.18-0.02,1.129,1.129,0,0,1-.74-0.46l-1.81-2.59a1.112,1.112,0,0,1,.27-1.56,1.131,1.131,0,0,1,1.56.27l1.16,1.66,5.16-3.77a1.132,1.132,0,0,1,1.57.25A1.118,1.118,0,0,1,1217.29,1915.22Z" transform="translate(-1194 -1897.53)"/>
</svg>
