<svg xmlns="http://www.w3.org/2000/svg" xmlns:xlink="http://www.w3.org/1999/xlink" width="34" height="25" viewBox="0 0 34 25">
  <metadata><?xpacket begin="﻿" id="W5M0MpCehiHzreSzNTczkc9d"?>
<x:xmpmeta xmlns:x="adobe:ns:meta/" x:xmptk="Adobe XMP Core 5.6-c142 79.160924, 2017/07/13-01:06:39        ">
   <rdf:RDF xmlns:rdf="http://www.w3.org/1999/02/22-rdf-syntax-ns#">
      <rdf:Description rdf:about=""/>
   </rdf:RDF>
</x:xmpmeta>
                                                                                                    
                                                                                                    
                                                                                                    
                                                                                                    
                                                                                                    
                                                                                                    
                                                                                                    
                                                                                                    
                                                                                                    
                                                                                                    
                                                                                                    
                                                                                                    
                                                                                                    
                                                                                                    
                                                                                                    
                                                                                                    
                                                                                                    
                                                                                                    
                                                                                                    
                                                                                                    
                           
<?xpacket end="w"?></metadata>
<defs>
    <style>
      .cls-1 {
        fill: #fff;
        fill-rule: evenodd;
        filter: url(#filter);
      }
    </style>
    <filter id="filter" x="1234" y="204" width="34" height="25" filterUnits="userSpaceOnUse">
      <feFlood result="flood" flood-color="#0e5796"/>
      <feComposite result="composite" operator="in" in2="SourceGraphic"/>
      <feBlend result="blend" in2="SourceGraphic"/>
    </filter>
  </defs>
  <path id="Фігура_4" data-name="Фігура 4" class="cls-1" d="M1259.76,212.011c0.76-.457,1.53-0.9,2.28-1.373a4.193,4.193,0,0,1,1.92-.669,4.036,4.036,0,0,1,2.42.583,4.278,4.278,0,0,1,1.47,1.5,0.942,0.942,0,0,1-.32,1.324,0.913,0.913,0,0,1-1.18-.356,2.59,2.59,0,0,0-1.42-1.134,2.222,2.222,0,0,0-1.79.227q-9.81,5.95-19.61,11.9c-0.21.13-.43,0.256-0.64,0.39a0.541,0.541,0,0,0-.27.536,2.428,2.428,0,0,1-.57,1.829,2.966,2.966,0,0,1-.54.439c-0.74.448-1.47,0.9-2.22,1.342a3.307,3.307,0,0,1-3.85-.376,4.277,4.277,0,0,1-1.13-1.628,3.441,3.441,0,0,1,.05-2.957,3.231,3.231,0,0,1,1.24-1.359c0.67-.419,1.34-0.843,2.04-1.233a2.356,2.356,0,0,1,2.34.095,0.718,0.718,0,0,0,.73,0q5.475-3.324,10.94-6.641,4.695-2.852,9.39-5.706a2.353,2.353,0,0,0,1.19-2.228,2.427,2.427,0,0,0-.35-1.07,0.951,0.951,0,0,1,.09-1.158,0.845,0.845,0,0,1,1.37.124,4.215,4.215,0,0,1,.25,4.162,3.926,3.926,0,0,1-1.64,1.753c-0.62.361-1.23,0.732-1.84,1.1q-2.25,1.368-4.5,2.741-2.235,1.359-4.46,2.713c-0.08.044-1.64,0.992-1.7,1.027q-3.9,2.365-7.79,4.731c-0.07.042-.13,0.09-0.2,0.136a2.021,2.021,0,0,1-1.62.21,2.943,2.943,0,0,1-.73-0.335,0.584,0.584,0,0,0-.71,0c-0.57.361-1.13,0.725-1.72,1.05a1.62,1.62,0,0,0-.8,1.989,2.29,2.29,0,0,0,.76,1.135,1.55,1.55,0,0,0,1.86.072c0.68-.4,1.34-0.819,2.02-1.221a0.683,0.683,0,0,0,.32-0.659,2.5,2.5,0,0,1,.07-0.818,2.414,2.414,0,0,1,.32-0.681,2.513,2.513,0,0,1,.25-0.312,1.386,1.386,0,0,1,.32-0.275c0.07-.045.14-0.09,0.21-0.133l7.59-4.606c0.06-.036,1.63-0.99,1.7-1.031q4.08-2.474,8.15-4.951a0.649,0.649,0,0,0,.25-0.153Z" transform="translate(-1234 -204)"/>
</svg>
