<svg xmlns="http://www.w3.org/2000/svg" width="26" height="26" viewBox="0 0 26 26">
  <metadata><?xpacket begin="﻿" id="W5M0MpCehiHzreSzNTczkc9d"?>
<x:xmpmeta xmlns:x="adobe:ns:meta/" x:xmptk="Adobe XMP Core 5.6-c142 79.160924, 2017/07/13-01:06:39        ">
   <rdf:RDF xmlns:rdf="http://www.w3.org/1999/02/22-rdf-syntax-ns#">
      <rdf:Description rdf:about=""/>
   </rdf:RDF>
</x:xmpmeta>
                                                                                                    
                                                                                                    
                                                                                                    
                                                                                                    
                                                                                                    
                                                                                                    
                                                                                                    
                                                                                                    
                                                                                                    
                                                                                                    
                                                                                                    
                                                                                                    
                                                                                                    
                                                                                                    
                                                                                                    
                                                                                                    
                                                                                                    
                                                                                                    
                                                                                                    
                                                                                                    
                           
<?xpacket end="w"?></metadata>
<defs>
    <style>
      .cls-1 {
        fill: #004e90;
        fill-rule: evenodd;
      }
    </style>
  </defs>
  <path id="Фігура_2" data-name="Фігура 2" class="cls-1" d="M891.138,209.575a11.213,11.213,0,1,0,11.138,11.213A11.176,11.176,0,0,0,891.138,209.575Zm0,17.333a6.121,6.121,0,1,1,6.08-6.12A6.1,6.1,0,0,1,891.138,226.908ZM894.825,206a11.653,11.653,0,0,0-9.527,4.618,12.4,12.4,0,0,1,6.926-1.888A11.149,11.149,0,0,1,903.4,219.853a13.545,13.545,0,0,1-2.138,7.308c2.722-2.029,4.739-6.394,4.739-10.038A11.149,11.149,0,0,0,894.825,206Z" transform="translate(-880 -206)"/>
</svg>
